<svg xmlns="http://www.w3.org/2000/svg" viewBox="0 0 800 800" class="logo">
        <defs>
          <style>
            .cube{
                transform-box: fill-box;
                transform-origin: center;
            }

            .cls-1 {
              fill: #171225;
            }
      
            .cls-2 {
              fill: #6ec6d9;
            }
      
            .cls-3 {
              fill: #885da3;
            }
      
            .cls-4 {
              fill: #6d388d;
            }
          </style>
        </defs>
        <g>
          <g class="cube" data-cube="0">
            <polygon class="cls-2" points="387.377 405.416 255.077 365.544 215.209 233.248 348.674 271.947 387.377 405.416"/>
            <polygon class="cls-3" points="111.806 335.681 215.209 233.248 255.077 365.544 151.674 467.981 111.806 335.681"/>
            <polygon class="cls-4" points="283.974 507.848 387.377 405.416 255.077 365.544 151.674 467.981 283.974 507.848"/>
          </g>
          <g class="cube" data-cube="1">
            <polygon class="cls-2" points="688.194 474.932 555.894 435.06 516.025 302.763 649.491 341.463 688.194 474.932"/>
            <polygon class="cls-3" points="412.623 405.197 516.025 302.763 555.894 435.06 452.49 537.497 412.623 405.197"/>
            <polygon class="cls-4" points="584.791 577.364 688.194 474.932 555.894 435.06 452.49 537.497 584.791 577.364"/>
          </g>
          <g class="cube" data-cube="2">
            <polygon class="cls-2" points="409.684 554.331 277.384 514.458 238.681 380.989 370.981 420.862 409.684 554.331"/>
            <polygon class="cls-3" points="135.278 483.427 238.681 380.989 277.384 514.458 173.981 616.896 135.278 483.427"/>
            <polygon class="cls-4" points="306.281 656.763 409.684 554.331 277.384 514.458 173.981 616.896 306.281 656.763"/>
          </g>
          <g class="cube" data-cube="3">
            <polygon class="cls-2" points="465.05 669.935 332.75 630.062 294.255 497.112 426.555 536.984 465.05 669.935"/>
            <polygon class="cls-3" points="190.852 599.549 294.255 497.112 332.75 630.062 229.347 732.5 190.852 599.549"/>
            <polygon class="cls-4" points="361.647 772.367 465.05 669.935 332.75 630.062 229.347 732.5 361.647 772.367"/>
          </g>
          <g class="cube" data-cube="4">
            <polygon class="cls-2" points="483.878 281.306 351.578 241.434 311.709 109.138 445.175 147.837 483.878 281.306"/>
            <polygon class="cls-3" points="208.436 211.505 311.709 109.138 351.578 241.434 248.305 343.801 208.436 211.505"/>
            <polygon class="cls-4" points="380.605 383.674 483.878 281.306 351.578 241.434 248.305 343.801 380.605 383.674"/>
          </g>
          <g class="cube" data-cube="5">
            <polygon class="cls-2" points="593.066 199.801 460.766 159.929 420.897 27.633 554.363 66.332 593.066 199.801"/>
            <polygon class="cls-3" points="317.531 129.93 420.897 27.633 460.766 159.929 357.4 262.226 317.531 129.93"/>
            <polygon class="cls-4" points="489.699 302.098 593.066 199.801 460.766 159.929 357.4 262.226 489.699 302.098"/>
          </g>
        </g>
      </svg>