<?xml version="1.0" standalone="no"?>
<!DOCTYPE svg PUBLIC "-//W3C//DTD SVG 20010904//EN"
 "http://www.w3.org/TR/2001/REC-SVG-20010904/DTD/svg10.dtd">
<svg version="1.0" xmlns="http://www.w3.org/2000/svg"
 width="700.000000pt" height="700.000000pt" viewBox="0 0 700.000000 700.000000"
 preserveAspectRatio="xMidYMid meet">
<metadata>
Created by potrace 1.14, written by Peter Selinger 2001-2017
</metadata>
<g transform="translate(0.000000,700.000000) scale(0.100000,-0.100000)"
fill="#000000" stroke="none">
<path d="M3296 6375 l-388 -383 -62 19 c-128 40 -67 85 -573 -416 l-450 -446
30 -96 30 -96 -453 -447 -453 -447 26 -84 c51 -167 99 -326 127 -419 15 -52
64 -216 109 -363 45 -148 81 -274 81 -281 0 -6 -31 -43 -70 -81 -38 -37 -67
-71 -65 -74 2 -4 37 -123 78 -266 122 -422 236 -817 247 -855 9 -35 12 -37
117 -70 l108 -35 67 -235 c137 -479 195 -676 206 -697 6 -11 24 -23 39 -26 26
-4 978 -291 1069 -321 23 -8 46 -11 52 -7 6 4 211 205 456 448 l445 441 -49
169 c-26 92 -69 240 -95 328 -26 88 -51 174 -55 190 -9 35 -76 267 -89 310 -5
17 -19 62 -30 100 l-21 70 -87 24 c-116 31 -120 34 -134 84 -6 23 -23 78 -36
122 -14 44 -26 87 -28 95 -2 8 -15 53 -28 100 -14 47 -58 197 -97 334 l-72
249 71 71 70 71 -24 84 c-14 47 -25 92 -25 100 0 8 134 146 298 308 163 161
336 332 383 379 l86 85 59 -19 c33 -11 73 -22 91 -26 30 -7 42 4 482 441 l451
448 -26 85 c-32 104 -54 180 -59 202 -2 9 -20 72 -40 140 -46 155 -137 467
-179 616 -17 63 -38 117 -46 122 -8 4 -181 56 -385 115 -203 58 -383 111 -400
116 -16 5 -86 25 -155 45 -69 20 -145 41 -170 49 l-46 13 -388 -383z"/>
<path d="M4424 4259 c-52 -52 -257 -254 -455 -449 l-359 -355 91 -300 c50
-165 92 -307 94 -315 29 -110 160 -528 169 -536 6 -7 119 -44 251 -83 132 -40
267 -81 300 -91 87 -29 592 -180 599 -180 3 0 209 201 457 448 l450 447 -85
295 c-278 960 -250 873 -282 882 -16 5 -60 17 -99 28 -38 10 -200 57 -360 104
-159 46 -346 101 -415 120 -148 43 -230 67 -248 74 -7 2 -55 -38 -108 -89z"/>
</g>
</svg>
