<?xml version="1.0" encoding="utf-8"?>
<!-- Generator: Adobe Illustrator 25.2.0, SVG Export Plug-In . SVG Version: 6.00 Build 0)  -->
<svg version="1.1"
	 id="svg2" xmlns:cc="http://creativecommons.org/ns#" xmlns:dc="http://purl.org/dc/elements/1.1/" xmlns:inkscape="http://www.inkscape.org/namespaces/inkscape" xmlns:rdf="http://www.w3.org/1999/02/22-rdf-syntax-ns#" xmlns:sodipodi="http://sodipodi.sourceforge.net/DTD/sodipodi-0.dtd" xmlns:svg="http://www.w3.org/2000/svg"
	 xmlns="http://www.w3.org/2000/svg" xmlns:xlink="http://www.w3.org/1999/xlink" x="0px" y="0px" viewBox="0 0 1212.4 729.4"
	 style="enable-background:new 0 0 1212.4 729.4;" xml:space="preserve">
<style type="text/css">
	.st0{opacity:0.358;fill:url(#path5961_2_);enable-background:new    ;}
	.st1{fill:url(#rect3834_2_);}
	.st2{fill:url(#rect3836_2_);}
	.st3{fill:url(#path4734_2_);}
	.st4{fill:url(#rect4989_1_);filter:url(#Adobe_OpacityMaskFilter);}
	.st5{opacity:0.33;mask:url(#mask4987_3_);}
	.st6{fill:url(#path4890_2_);}
	.st7{fill:url(#path4892_2_);}
	.st8{fill:url(#path4894_2_);}
	.st9{fill:#2E3436;}
	.st10{fill:#0A0A0A;stroke:#898989;stroke-width:2;stroke-linejoin:round;}
	.st11{fill:#000300;stroke:#333333;stroke-width:1.5;stroke-linejoin:round;}
	.st12{opacity:0.667;clip-path:url(#SVGID_2_);filter:url(#filter5079);enable-background:new    ;}
	.st13{fill:#FFFFFF;}
	.st14{opacity:0.708;filter:url(#filter5593);enable-background:new    ;}
	.st15{fill:#262E33;}
	.st16{opacity:0.358;fill:url(#path5961_3_);enable-background:new    ;}
</style>
<filter  height="2.1228571" id="filter5593" inkscape:collect="always" style="color-interpolation-filters:sRGB" width="2.429091" x="-0.71454543" y="-0.56142861">
	<feGaussianBlur  id="feGaussianBlur5595" inkscape:collect="always" stdDeviation="0.6103362"></feGaussianBlur>
</filter>
<filter  height="1.3141096" id="filter5079" inkscape:collect="always" style="color-interpolation-filters:sRGB" width="1.2276787" x="-0.11383933" y="-0.1570548">
	<feGaussianBlur  id="feGaussianBlur5081" inkscape:collect="always" stdDeviation="0.60199232"></feGaussianBlur>
</filter>
<sodipodi:namedview  bordercolor="#666666" borderopacity="1.0" fit-margin-bottom="0" fit-margin-left="0" fit-margin-right="0" fit-margin-top="0.7" id="base" inkscape:bbox-nodes="true" inkscape:bbox-paths="true" inkscape:current-layer="layer1" inkscape:cx="976.80841" inkscape:cy="388.38951" inkscape:document-units="px" inkscape:guide-bbox="true" inkscape:pageopacity="0.0" inkscape:pageshadow="2" inkscape:snap-bbox="true" inkscape:snap-global="true" inkscape:window-height="729" inkscape:window-maximized="0" inkscape:window-width="1362" inkscape:window-x="0" inkscape:window-y="37" inkscape:zoom="0.25" pagecolor="#ffffff" showgrid="false" showguides="true" units="px">
	<sodipodi:guide  id="guide4763" orientation="1,0" position="1073.2197,-250.81264"></sodipodi:guide>
	<sodipodi:guide  id="guide4995" orientation="0,1" position="411.86046,692.55281"></sodipodi:guide>
	<sodipodi:guide  id="guide4999" orientation="0,1" position="1078.0955,106.77536"></sodipodi:guide>
	<sodipodi:guide  id="guide5679" orientation="1,0" position="140.88982,674.66204"></sodipodi:guide>
	<sodipodi:guide  id="guide5681" orientation="1,0" position="1073.2197,156.52154"></sodipodi:guide>
</sodipodi:namedview>
<linearGradient id="path5961_2_" gradientUnits="userSpaceOnUse" x1="339.7508" y1="734.4741" x2="116.3051" y2="318.6953" gradientTransform="matrix(1 0 0 -1 0 732)">
	<stop  offset="0" style="stop-color:#FFFFFF"/>
	<stop  offset="1" style="stop-color:#FFFFFF;stop-opacity:0"/>
</linearGradient>
<path id="path5961" inkscape:connector-curvature="0" sodipodi:nodetypes="csssssssssssssssssssssscssc" class="st0" d="
	M119.7,476.9c5.9-3,7.2,2.7,12.9-0.4c9.7-5.2,19.3-10.5,28.6-15.9s18.5-11,27.4-16.6c9-5.6,17.7-11.4,26.3-17.2s17-11.8,25.2-17.9
	c8.2-6.1,16.2-12.2,24.1-18.5s15.5-12.6,23-19.1s14.8-13,22-19.7s14.1-13.4,21-20.2c6.8-6.8,13.5-13.8,20-20.8
	c6.5-7,12.8-14.1,19-21.3s12.2-14.5,18.1-21.9s11.6-14.8,17.2-22.4c5.6-7.5,11-15.2,16.3-22.9s10.4-15.5,15.4-23.3
	s9.9-15.8,14.6-23.8s9.3-16.1,13.8-24.3c4.5-8.2,8.8-16.4,13-24.7c4.2-8.3,8.3-16.7,12.2-25.1s7.8-17,11.5-25.5
	c3.7-8.6,7.3-17.2,10.8-25.9c3.5-8.7,5.9-13.5,9.2-22.4c2.7-7.4,5.9-14,8.5-21.5L145,5.4c-19.2,0-26.1,14.3-26.1,22.6
	C118.9,28.1,119.6,343,119.7,476.9z"/>
<g id="g4883_1_" transform="translate(-0.52711469,-36.140281)">
	
		<linearGradient id="rect3834_2_" gradientUnits="userSpaceOnUse" x1="-1443.5559" y1="-233.5838" x2="-231.1936" y2="-233.2888" gradientTransform="matrix(1 0 0 -1 198.8799 473.5425)">
		<stop  offset="0" style="stop-color:#707580"/>
		<stop  offset="3.440350e-03" style="stop-color:#FFFFFF"/>
		<stop  offset="1.728533e-02" style="stop-color:#B9B9BE"/>
		<stop  offset="4.682935e-02" style="stop-color:#F0F0F2"/>
		<stop  offset="0.9604" style="stop-color:#F5F6F7"/>
		<stop  offset="0.9847" style="stop-color:#C6C7CD"/>
		<stop  offset="0.9952" style="stop-color:#E9E9EB"/>
		<stop  offset="1" style="stop-color:#A6A8AF"/>
	</linearGradient>
	<path id="rect3834_1_" inkscape:connector-curvature="0" sodipodi:nodetypes="sssssccs" class="st1" d="M-1243.4,695.9H-33.6
		c0.7,0,1.3,0.5,1.3,1.1v20c0,0.6-0.6,1.1-1.3,1.1h-1211.1c0-6.8,0-14.1,0-21.1C-1244.7,696.4-1244.1,695.9-1243.4,695.9
		L-1243.4,695.9z"/>
	
		<linearGradient id="rect3836_2_" gradientUnits="userSpaceOnUse" x1="-921.0854" y1="-101.0824" x2="-752.0894" y2="-101.0824" gradientTransform="matrix(1 0 0 -1 201.2393 601.6536)">
		<stop  offset="0" style="stop-color:#9FA0A2"/>
		<stop  offset="3.532777e-02" style="stop-color:#B3B4B8"/>
		<stop  offset="0.1277" style="stop-color:#E1E1E4"/>
		<stop  offset="0.8309" style="stop-color:#E1E1E4"/>
		<stop  offset="0.9353" style="stop-color:#C8C9CD"/>
		<stop  offset="1" style="stop-color:#9FA0A2"/>
	</linearGradient>
	<path id="rect3836_1_" inkscape:connector-curvature="0" class="st2" d="M-719.8,695.9c0,0.2,0,0.3,0,0.5c0,7.3,5.9,13.2,13.2,13.2
		h142.5c7.3,0,13.2-5.9,13.2-13.2c0-0.2,0-0.3,0-0.5H-719.8z"/>
	
		<linearGradient id="path4734_2_" gradientUnits="userSpaceOnUse" x1="-837.3744" y1="-94.2005" x2="-837.3744" y2="-106.8166" gradientTransform="matrix(1 0 0 -1 198.8798 623.9027)">
		<stop  offset="0" style="stop-color:#8F8F97"/>
		<stop  offset="0.2799" style="stop-color:#92929A"/>
		<stop  offset="0.6996" style="stop-color:#6E7177"/>
		<stop  offset="1" style="stop-color:#1E1E1E"/>
	</linearGradient>
	<path id="path4734_1_" inkscape:connector-curvature="0" sodipodi:nodetypes="cccscc" class="st3" d="M-65,730.7
		c11.1,0,32.7-8.6,32.7-12.6c-404.1-0.1-808.2,0.3-1212.4,0l0,0c0,4,21.6,12.6,32.7,12.6C-829.7,730.5-447.3,730.7-65,730.7
		L-65,730.7z"/>
</g>
<defs>
	<filter id="Adobe_OpacityMaskFilter" filterUnits="userSpaceOnUse" x="-1244.7" y="694.6" width="1212.4" height="34.9">
		<feColorMatrix  type="matrix" values="1 0 0 0 0  0 1 0 0 0  0 0 1 0 0  0 0 0 1 0"/>
	</filter>
</defs>
<mask maskUnits="userSpaceOnUse" x="-1244.7" y="694.6" width="1212.4" height="34.9" id="mask4987_3_">
	
		<linearGradient id="rect4989_1_" gradientUnits="userSpaceOnUse" x1="-851.1118" y1="-92.4364" x2="-851.1118" y2="-73.9711" gradientTransform="matrix(1 0 0 1 7.0242 967.8225)">
		<stop  offset="0" style="stop-color:#000000"/>
		<stop  offset="1" style="stop-color:#FFFFFF"/>
	</linearGradient>
	<path id="rect4989_3_" class="st4" d="M-1449,897.2h1209.8c0.7,0,1.3-0.2,1.3-0.4v-34.1c0-0.2-0.6-0.4-1.3-0.4H-1449
		c-0.7,0-1.3,0.2-1.3,0.4v34.1C-1450.3,897-1449.7,897.2-1449,897.2z"/>
</mask>
<g id="g4888_1_" transform="matrix(1,0,0,-1,-2.7638523e-6,1758.2716)" class="st5">
	
		<linearGradient id="path4890_2_" gradientUnits="userSpaceOnUse" x1="-1444.0829" y1="1259.9955" x2="-231.7204" y2="1259.7004" gradientTransform="matrix(1 0 0 1 199.407 -219.8962)">
		<stop  offset="0" style="stop-color:#707580"/>
		<stop  offset="3.440350e-03" style="stop-color:#FFFFFF"/>
		<stop  offset="1.728533e-02" style="stop-color:#B9B9BE"/>
		<stop  offset="4.682935e-02" style="stop-color:#F0F0F2"/>
		<stop  offset="0.9604" style="stop-color:#F5F6F7"/>
		<stop  offset="0.9847" style="stop-color:#C6C7CD"/>
		<stop  offset="0.9952" style="stop-color:#E9E9EB"/>
		<stop  offset="1" style="stop-color:#A6A8AF"/>
	</linearGradient>
	<path id="path4890_1_" inkscape:connector-curvature="0" sodipodi:nodetypes="sssssccs" class="st6" d="M-1243.4,1028.8H-33.6
		c0.7,0,1.3,0.5,1.3,1.1v20c0,0.6-0.6,1.1-1.3,1.1h-1211.1c0-6.8,0-14.1,0-21.1C-1244.7,1029.3-1244.1,1028.8-1243.4,1028.8
		L-1243.4,1028.8z"/>
	
		<linearGradient id="path4892_2_" gradientUnits="userSpaceOnUse" x1="-921.6125" y1="1127.4943" x2="-752.6165" y2="1127.4943" gradientTransform="matrix(1 0 0 1 201.7664 -91.7852)">
		<stop  offset="0" style="stop-color:#9FA0A2"/>
		<stop  offset="3.532777e-02" style="stop-color:#B3B4B8"/>
		<stop  offset="0.1277" style="stop-color:#E1E1E4"/>
		<stop  offset="0.8309" style="stop-color:#E1E1E4"/>
		<stop  offset="0.9353" style="stop-color:#C8C9CD"/>
		<stop  offset="1" style="stop-color:#9FA0A2"/>
	</linearGradient>
	<path id="path4892_1_" inkscape:connector-curvature="0" class="st7" d="M-719.8,1028.8c0,0.2,0,0.3,0,0.5
		c0,7.3,5.9,13.2,13.2,13.2h142.5c7.3,0,13.2-5.9,13.2-13.2c0-0.2,0-0.3,0-0.5H-719.8z"/>
	
		<linearGradient id="path4894_2_" gradientUnits="userSpaceOnUse" x1="-837.9015" y1="1120.6123" x2="-837.9015" y2="1133.2285" gradientTransform="matrix(1 0 0 1 199.407 -69.536)">
		<stop  offset="0" style="stop-color:#8F8F97"/>
		<stop  offset="0.2799" style="stop-color:#92929A"/>
		<stop  offset="0.6996" style="stop-color:#6E7177"/>
		<stop  offset="1" style="stop-color:#1E1E1E"/>
	</linearGradient>
	<path id="path4894_1_" inkscape:connector-curvature="0" sodipodi:nodetypes="cccscc" class="st8" d="M-65,1063.7
		c11.1,0,32.7-8.6,32.7-12.6c-404.1-0.1-808.2,0.3-1212.4,0l0,0c0,4,21.6,12.6,32.7,12.6C-829.7,1063.4-447.3,1063.7-65,1063.7
		L-65,1063.7z"/>
</g>
<path class="st9" d="M-177.7,0.7h-922c-19,0-30.2,12-30.2,30.8c0,210,0.2,630.6,0.2,630.6c317.4,0,665.3,0.4,982.7-0.2V31.5
	C-146.9,14.4-160.7,0.7-177.7,0.7z M-1101.2,37.3c0-0.2,0.7-0.4,1.4-0.4h926.8c0.8,0,1.4,0.2,1.4,0.4V622c0,0.2-0.6,0.4-1.4,0.4
	h-926.8c-0.8,0-1.4-0.2-1.4-0.4V37.3z"/>
<path class="st10" d="M-151.8,28.9c0-13.5-10.9-24.3-24.3-24.3H-1102c-13.5,0-24.7,10.9-24.7,24.3v629.8h976.4L-151.8,28.9z
	 M-171.5,622c0,0.2-0.6,0.4-1.4,0.4h-926.8c-0.8,0-1.4-0.2-1.4-0.4V37.3c0-0.2,0.7-0.4,1.4-0.4h926.8c0.8,0,1.4,0.2,1.4,0.4V622z"/>
<g id="g5697_1_" transform="translate(0,2.6355596)">
	<circle id="circle5025_1_" class="st11" cx="-639.1" cy="19.1" r="6.6"/>
	<g>
		<defs>
			<circle id="SVGID_1_" cx="-639.1" cy="19.2" r="6.6"/>
		</defs>
		<clipPath id="SVGID_2_">
			<use xlink:href="#SVGID_1_"  style="overflow:visible;"/>
		</clipPath>
		<g id="circle5020_1_" inkscape:connector-curvature="0" class="st12">
			<path class="st13" d="M-633.2,16.7c-0.2,4-3.4,7.1-7.2,7.1c-1.8,0-3.6-0.7-4.9-2c1,2.5,3.4,4.1,6.1,4.1c3.6,0,6.6-2.9,6.6-6.6
				C-632.7,18.5-632.8,17.6-633.2,16.7L-633.2,16.7z"/>
		</g>
	</g>
	<g id="path5087_1_" class="st14">
		<ellipse class="st13" cx="-641.4" cy="19.7" rx="0.8" ry="1.3"/>
	</g>
</g>
<path id="rect5933_1_" inkscape:connector-curvature="0" sodipodi:nodetypes="cccccccccc" class="st15" d="M-1129.6,633.8v28.3
	l982.5-0.2l0.1,0v-28.3h-2.3c0.1,1.3,0.1,12-13.9,12l-950.3,0.1c-8.6,0-15.4-6.3-15.4-12L-1129.6,633.8z"/>
<linearGradient id="path5961_3_" gradientUnits="userSpaceOnUse" x1="-904.9224" y1="734.4741" x2="-1128.3682" y2="318.6953" gradientTransform="matrix(1 0 0 -1 0 732)">
	<stop  offset="0" style="stop-color:#FFFFFF"/>
	<stop  offset="1" style="stop-color:#FFFFFF;stop-opacity:0"/>
</linearGradient>
<path id="path5961_1_" inkscape:connector-curvature="0" sodipodi:nodetypes="csssssssssssssssssssssscssc" class="st16" d="
	M-1125,476.9c5.9-3,7.2,2.7,12.9-0.4c9.7-5.2,19.3-10.5,28.6-15.9c9.3-5.4,18.5-11,27.4-16.6c9-5.6,17.7-11.4,26.3-17.2
	c8.6-5.9,17-11.8,25.2-17.9s16.2-12.2,24.1-18.5s15.5-12.6,23-19.1c7.5-6.5,14.8-13,22-19.7s14.1-13.4,21-20.2
	c6.8-6.8,13.5-13.8,20-20.8c6.5-7,12.8-14.1,19-21.3s12.2-14.5,18.1-21.9s11.6-14.8,17.2-22.4c5.6-7.5,11-15.2,16.3-22.9
	c5.3-7.7,10.4-15.5,15.4-23.3c5-7.9,9.9-15.8,14.6-23.8c4.7-8,9.3-16.1,13.8-24.3c4.5-8.2,8.8-16.4,13-24.7
	c4.2-8.3,8.3-16.7,12.2-25.1s7.8-17,11.5-25.5s7.3-17.2,10.8-25.9s5.9-13.5,9.2-22.4c2.7-7.4,5.9-14,8.5-21.5l-384.7-0.2
	c-19.2,0-26.1,14.3-26.1,22.6C-1125.8,28.1-1125,343-1125,476.9z"/>
</svg>
